# xmcd
#
# Track frame offsets: 
#        150
#        18225
#        35900
#        52256
#        68023
#        84091
#        101617
#        117235
#        132036
#        155203
#        171667
#        187555
#        211165
#        230876
#        248584
#        265127
#        282581
#
# Disc length: 3971 seconds
#
# Revision: 0
# Processed by: cddbd v1.5.1PL2 Copyright (c) Steve Scherf et al.
# Submitted via: ExactAudioCopy v0.95b1
#
DISCID=f10f8111
DTITLE=João Bosco e Vinícius - Ao vivo
DYEAR=2005
DGENRE=Sertanejo
TTITLE0=Quero provar que te amo
TTITLE1=Querendo te encontrar
TTITLE2=Mania de me enganar
TTITLE3=Insegurança
TTITLE4=magia
TTITLE5=Faz de conta
TTITLE6=Sofrendo por amor
TTITLE7=Magia e mistério
TTITLE8=Pout pourri modas de viola - Pagode em Brasilia - Pagode- Falo
TTITLE8=u e Disse -  Mini Saia - Passa Moreno
TTITLE9=Não é mais como antes
TTITLE10=Feito eu
TTITLE11=Pout Pourri guaranias - Não aceito seu adeus  - Amargurado  -
TTITLE11=Brigas
TTITLE12=Enquanto o inverno não passar
TTITLE13=Pout Pourri boleros - Aceito sua decisão - Pois é
TTITLE14=Olha amor
TTITLE15=Tatuagem
TTITLE16=Acabou
EXTD=
EXTT0=
EXTT1=
EXTT2=
EXTT3=
EXTT4=
EXTT5=
EXTT6=
EXTT7=
EXTT8=
EXTT9=
EXTT10=
EXTT11=
EXTT12=
EXTT13=
EXTT14=
EXTT15=
EXTT16=
PLAYORDER=
